<svg xmlns="http://www.w3.org/2000/svg" xmlns:xlink="http://www.w3.org/1999/xlink" version="1.1" width="256" height="256" viewBox="0 0 256 256" xml:space="preserve">
<desc>Created with Fabric.js 1.7.22</desc>
<defs>
</defs>
<g transform="translate(128 128) scale(0.72 0.72)" style="">
	<g style="stroke: none; stroke-width: 0; stroke-dasharray: none; stroke-linecap: butt; stroke-linejoin: miter; stroke-miterlimit: 10; fill: #ffffff; fill-rule: nonzero; opacity: 1;" transform="translate(-175.05 -175.05000000000004) scale(3.89 3.89)" >
	<path d="M 44.864 61.323 c -2.569 0 -5.235 -1.041 -7.981 -3.125 c -0.44 -0.334 -0.526 -0.962 -0.192 -1.401 c 0.333 -0.438 0.961 -0.525 1.401 -0.192 c 4.707 3.572 8.925 3.591 12.893 0.051 c 0.413 -0.366 1.044 -0.331 1.412 0.08 c 0.368 0.412 0.332 1.045 -0.08 1.412 C 49.944 60.264 47.454 61.323 44.864 61.323 z" style="stroke: none; stroke-width: 1; stroke-dasharray: none; stroke-linecap: butt; stroke-linejoin: miter; stroke-miterlimit: 10; fill-rule: nonzero; opacity: 1;" transform=" matrix(1 0 0 1 0 0) " stroke-linecap="round" />
	<path d="M 34.256 45.663 c -0.302 0 -0.601 -0.136 -0.797 -0.395 c -0.334 -0.44 -0.248 -1.067 0.192 -1.401 c 3.613 -2.743 6.425 -1.487 8.147 0.05 c 0.412 0.368 0.448 0.999 0.081 1.412 c -0.367 0.412 -1 0.449 -1.412 0.081 c -1.762 -1.572 -3.491 -1.555 -5.607 0.05 C 34.679 45.597 34.467 45.663 34.256 45.663 z" style="stroke: none; stroke-width: 1; stroke-dasharray: none; stroke-linecap: butt; stroke-linejoin: miter; stroke-miterlimit: 10;  fill-rule: nonzero; opacity: 1;" transform=" matrix(1 0 0 1 0 0) " stroke-linecap="round" />
	<path d="M 48.01 45.663 c -0.303 0 -0.601 -0.136 -0.798 -0.395 c -0.334 -0.44 -0.248 -1.067 0.192 -1.401 c 3.612 -2.743 6.425 -1.487 8.147 0.05 c 0.412 0.368 0.448 0.999 0.08 1.412 c -0.368 0.413 -0.999 0.448 -1.412 0.081 c -1.76 -1.571 -3.489 -1.555 -5.606 0.05 C 48.433 45.597 48.22 45.663 48.01 45.663 z" style="stroke: none; stroke-width: 1; stroke-dasharray: none; stroke-linecap: butt; stroke-linejoin: miter; stroke-miterlimit: 10;  fill-rule: nonzero; opacity: 1;" transform=" matrix(1 0 0 1 0 0) " stroke-linecap="round" />
	<path d="M 83.726 88.731 l -1.8 -6.438 c -1.201 -4.297 -5.156 -7.298 -9.617 -7.298 h -8.305 c -3.502 0 -6.648 -2.343 -7.651 -5.697 c -0.842 -2.813 -0.09 -5.833 1.949 -7.869 c 6.251 -6.044 6.889 -12.59 6.993 -19.894 c 6.802 -15.492 2.875 -30.522 -4.556 -37.394 C 55.91 -0.326 49.967 -1.221 44.392 1.66 c -6.217 -0.867 -11.788 0.618 -15.328 4.096 c -2.327 2.286 -3.473 5.178 -3.272 8.209 c -2.147 1.241 -3.754 3.307 -4.669 6.018 c -1.899 5.628 -0.721 13.335 3.223 21.18 c -0.023 0.479 -0.041 0.959 -0.041 1.444 c 0 7.27 2.691 14.127 7.382 18.811 c 2.051 2.047 2.802 5.066 1.96 7.88 c -1.019 3.407 -4.094 5.697 -7.651 5.697 h -8.305 c -4.461 0 -8.416 3.001 -9.616 7.298 l -1.8 6.438 c -0.084 0.302 -0.023 0.625 0.166 0.874 C 6.63 89.854 6.924 90 7.237 90 h 75.526 c 0.312 0 0.607 -0.146 0.797 -0.395 C 83.748 89.355 83.81 89.032 83.726 88.731 z M 23.018 20.622 c 0.618 -1.83 1.599 -3.294 2.878 -4.312 c 0.351 6.44 3.092 11.186 7.105 12.038 c 0.07 0.015 0.14 0.022 0.208 0.022 c 0.462 0 0.877 -0.322 0.977 -0.792 c 0.115 -0.54 -0.23 -1.071 -0.77 -1.185 c -3.363 -0.714 -5.65 -5.584 -5.563 -11.843 c 0 -0.021 -0.01 -0.038 -0.011 -0.059 c -0.001 -0.03 0.006 -0.059 0.002 -0.089 c -0.355 -2.645 0.575 -5.209 2.621 -7.218 c 2.742 -2.694 6.954 -4.006 11.774 -3.725 c -1.034 1.289 -1.6 2.919 -1.605 4.777 c -0.011 4.214 2.738 8.788 6.84 11.382 c 0.166 0.105 0.351 0.155 0.533 0.155 c 0.332 0 0.656 -0.165 0.846 -0.466 c 0.296 -0.467 0.156 -1.084 -0.311 -1.379 c -3.488 -2.205 -5.917 -6.189 -5.908 -9.687 c 0.003 -1.436 0.434 -3.41 2.447 -4.681 c 4.85 -2.613 10.062 -1.867 14.301 2.051 c 6.835 6.322 10.427 20.187 4.28 34.654 c -8.974 -0.78 -15.838 -2.137 -21.699 -10.431 c -0.187 -0.265 -0.492 -0.423 -0.817 -0.423 c -0.002 0 -0.004 0 -0.006 0 c -0.327 0.002 -0.632 0.163 -0.817 0.432 c -3.695 5.358 -8.303 8.523 -14.422 9.95 C 22.436 32.682 21.351 25.562 23.018 20.622 z M 8.555 88 L 10 82.831 c 0.96 -3.436 4.123 -5.837 7.691 -5.837 h 8.305 c 4.448 0 8.292 -2.863 9.567 -7.125 c 1.053 -3.518 0.109 -7.299 -2.463 -9.868 c -4.318 -4.311 -6.795 -10.652 -6.795 -17.395 c 0 -0.28 0.004 -0.559 0.012 -0.836 c 6.215 -1.435 10.975 -4.533 14.84 -9.665 c 6.121 7.917 13.39 9.361 22.127 10.134 c -0.134 6.761 -0.859 12.42 -6.384 17.762 c -2.572 2.568 -3.516 6.349 -2.464 9.868 c 1.254 4.195 5.188 7.125 9.567 7.125 h 8.305 c 3.567 0 6.73 2.4 7.691 5.837 L 81.445 88 H 8.555 z" style="stroke: none; stroke-width: 1; stroke-dasharray: none; stroke-linecap: butt; stroke-linejoin: miter; stroke-miterlimit: 10;  fill-rule: nonzero; opacity: 1;" transform=" matrix(1 0 0 1 0 0) " stroke-linecap="round" />
</g>
</g>
</svg>