<!--<svg width="128px" height="128px" viewBox="0 0 32 32" fill="none" xmlns="http://www.w3.org/2000/svg">-->
<!--<path d="M15.0005 6C10.0299 6 6.00049 10.0294 6.00049 15C6.00049 19.9706 10.0299 24 15.0005 24C17.1255 24 19.0785 23.2635 20.6182 22.0319L26.2934 27.7071C26.6839 28.0976 27.3171 28.0976 27.7076 27.7071C28.0981 27.3166 28.0981 26.6834 27.7076 26.2929L22.0324 20.6177C23.264 19.078 24.0005 17.125 24.0005 15C24.0005 10.0294 19.9711 6 15.0005 6Z" fill="#3A52EE" stroke="#3A52EE" stroke-width="1.5" stroke-linecap="round" stroke-linejoin="round"/>-->
<!--</svg>-->
<svg width="128px" height="128px" viewBox="0 0 32 32" fill="none" xmlns="http://www.w3.org/2000/svg">
<path d="M15.75 15.75L20.25 20.25M17.25 11.25C17.25 14.5637 14.5637 17.25 11.25 17.25C7.93629 17.25 5.25 14.5637 5.25 11.25C5.25 7.93629 7.93629 5.25 11.25 5.25C14.5637 5.25 17.25 7.93629 17.25 11.25Z" fill="#3A52EE" stroke="#3A52EE" stroke-width="1.5" stroke-linecap="round" stroke-linejoin="round"/>
</svg>
